<svg width="25" height="27" viewBox="0 0 25 27" fill="none" xmlns="http://www.w3.org/2000/svg">
<g id="Group 2041">
<path id="Path 37" d="M21.8202 0.0710449L3.45428 0.0710449C3.08438 0.0719177 2.71832 0.142518 2.37693 0.278826C2.03553 0.415133 1.72554 0.614462 1.46463 0.865453C1.20371 1.11644 0.996995 1.41411 0.856283 1.74158C0.715572 2.06904 0.643565 2.4199 0.644479 2.77398L0.644479 20.5114C0.643565 20.8654 0.715572 21.2161 0.856283 21.5436C0.996995 21.8711 1.20371 22.1689 1.46463 22.4199C1.72554 22.6709 2.03553 22.8702 2.37693 23.0065C2.71832 23.1428 3.08438 23.2134 3.45428 23.2143L18.9965 23.2143L18.2708 20.7882L20.0253 22.3492L21.684 23.8131L24.6314 26.3058L24.6314 2.76862C24.6318 2.05421 24.336 1.36896 23.8089 0.863178C23.2818 0.357394 22.5666 0.0724553 21.8202 0.0710449ZM16.5301 17.2056C16.5301 17.2056 16.0366 16.6412 15.625 16.1408C16.619 15.9168 17.4981 15.3634 18.1067 14.5785C17.6134 14.8929 17.0846 15.1528 16.5301 15.3531C15.8927 15.6135 15.226 15.8027 14.5434 15.9173C13.3692 16.1241 12.165 16.1196 10.9925 15.904C10.3045 15.7749 9.63018 15.5861 8.97799 15.3398C8.63396 15.2135 8.29944 15.0644 7.97693 14.8938C7.93661 14.8672 7.89491 14.8553 7.85321 14.8287C7.83269 14.8187 7.8143 14.8051 7.79898 14.7887C7.5529 14.6556 7.41526 14.5665 7.41526 14.5665C8.00172 15.3343 8.85009 15.8819 9.81358 16.1143C9.39649 16.6134 8.89593 17.203 8.89593 17.203C8.08152 17.2238 7.27424 17.0525 6.54521 16.7044C5.81618 16.3563 5.18783 15.842 4.71535 15.2067C4.76001 12.5471 5.43504 9.93178 6.68955 7.5583C7.79346 6.7288 9.13905 6.24749 10.5407 6.18084L10.6797 6.33793C9.36066 6.65059 8.12976 7.23765 7.07464 8.05736C7.07464 8.05736 7.37638 7.90031 7.88384 7.67673C8.8691 7.24619 9.91916 6.96731 10.9953 6.85032C11.0722 6.83488 11.1504 6.82595 11.2289 6.82367C12.1472 6.70905 13.0765 6.70009 13.997 6.79703C15.4447 6.95541 16.8461 7.38359 18.122 8.05736C17.1209 7.27682 15.958 6.70893 14.7102 6.39122L14.9021 6.18084C16.3038 6.24741 17.6494 6.72872 18.7532 7.5583C20.0077 9.93178 20.6828 12.5471 20.7274 15.2067C20.2513 15.8428 19.6197 16.3574 18.8878 16.7058C18.1559 17.0543 17.3459 17.2259 16.5287 17.2056H16.5301ZM10.157 11.0837C9.84996 11.0585 9.54209 11.1227 9.2738 11.2678C9.00552 11.4129 8.78932 11.6322 8.6535 11.897C8.51768 12.1618 8.46855 12.4597 8.51263 12.7517C8.55672 13.0436 8.69193 13.3161 8.90052 13.5333C9.10911 13.7504 9.38139 13.902 9.68163 13.9685C9.98187 14.0349 10.2961 14.0132 10.5831 13.9058C10.8701 13.7984 11.1166 13.6103 11.2901 13.3666C11.4636 13.1228 11.5562 12.8347 11.5556 12.5397C11.5638 12.3561 11.5341 12.1729 11.4682 12.0003C11.4023 11.8278 11.3016 11.6693 11.1717 11.5341C11.0418 11.3988 10.8853 11.2894 10.7112 11.2121C10.5371 11.1348 10.3488 11.0913 10.157 11.0837ZM15.1621 11.0837C14.855 11.0585 14.5472 11.1227 14.2789 11.2678C14.0106 11.4129 13.7944 11.6322 13.6586 11.897C13.5227 12.1618 13.4737 12.4597 13.5178 12.7517C13.5619 13.0436 13.6971 13.3161 13.9057 13.5333C14.1143 13.7504 14.3865 13.902 14.6867 13.9685C14.9869 14.0349 15.3012 14.0132 15.5882 13.9058C15.8752 13.7984 16.1216 13.6103 16.2952 13.3666C16.4687 13.1228 16.5612 12.8347 16.5607 12.5397C16.5689 12.3561 16.5392 12.1729 16.4734 12.0003C16.4075 11.8278 16.3067 11.6693 16.1768 11.5341C16.0469 11.3988 15.8904 11.2894 15.7163 11.2121C15.5421 11.1348 15.3538 11.0913 15.1621 11.0837Z" fill="white"/>
</g>
</svg>
