<svg width="38" height="27" viewBox="0 0 38 27" fill="none" xmlns="http://www.w3.org/2000/svg">
<path d="M17.1081 21.9898C17.2489 21.99 17.3883 22.0179 17.5184 22.072C17.6484 22.1261 17.7665 22.2053 17.8659 22.305C17.9654 22.4047 18.0442 22.523 18.0979 22.6532C18.1516 22.7834 18.1791 22.9229 18.1789 23.0637C18.1787 23.2045 18.1508 23.3439 18.0967 23.4739C18.0426 23.604 17.9635 23.7221 17.8638 23.8215C17.764 23.9209 17.6457 23.9998 17.5155 24.0535C17.3854 24.1072 17.2459 24.1347 17.1051 24.1345C16.8206 24.1341 16.548 24.0207 16.3472 23.8193C16.1464 23.618 16.0338 23.345 16.0342 23.0606C16.0346 22.7762 16.148 22.5036 16.3494 22.3028C16.5508 22.102 16.8237 21.9894 17.1081 21.9898ZM33.924 15.3589C33.7832 15.3588 33.6438 15.331 33.5137 15.277C33.3837 15.223 33.2655 15.1439 33.166 15.0443C33.0665 14.9446 32.9876 14.8264 32.9338 14.6962C32.88 14.5661 32.8524 14.4266 32.8525 14.2858C32.8526 14.145 32.8804 14.0056 32.9344 13.8755C32.9884 13.7454 33.0674 13.6273 33.1671 13.5278C33.2667 13.4283 33.385 13.3493 33.5151 13.2955C33.6453 13.2418 33.7848 13.2141 33.9256 13.2142C34.21 13.2144 34.4827 13.3276 34.6836 13.5288C34.8846 13.7301 34.9974 14.0029 34.9972 14.2873C34.997 14.5717 34.8838 14.8444 34.6825 15.0454C34.4813 15.2463 34.2085 15.3591 33.924 15.3589ZM33.924 10.9719C33.0448 10.9727 32.2018 11.3223 31.58 11.9441C30.9583 12.5658 30.6087 13.4088 30.6078 14.2881C30.6078 14.6435 30.6673 14.9974 30.7833 15.3421L19.8294 21.1737C19.5257 20.7327 19.1193 20.3722 18.6452 20.1232C18.1711 19.8742 17.6436 19.7442 17.1081 19.7444C15.8436 19.7444 14.6919 20.469 14.1336 21.5993L4.29326 16.4099C3.25294 15.8638 2.47499 14.1523 2.55736 12.5934C2.60008 11.7803 2.88075 11.1488 3.30938 10.9048C3.5809 10.7522 3.90734 10.7644 4.25513 10.946L4.3192 10.981C6.92762 12.3539 15.4607 16.8492 15.8207 17.0155C16.3744 17.2733 16.6825 17.377 17.6283 16.9285L35.2679 7.75483C35.5272 7.6572 35.8293 7.40856 35.8293 7.03179C35.8293 6.5101 35.2893 6.30418 35.2878 6.30418C34.284 5.82368 32.7419 5.10217 31.2378 4.39743C28.0223 2.89187 24.3781 1.18648 22.778 0.34751C21.396 -0.375527 20.284 0.234631 20.0857 0.356663L19.7013 0.547337C12.4984 4.10913 2.85787 8.88362 2.30873 9.21768C1.3279 9.81563 0.719264 11.007 0.639944 12.4851C0.517912 14.8296 1.7123 17.2748 3.42226 18.1702L13.8285 23.5366C13.9431 24.3248 14.3376 25.0456 14.9397 25.5671C15.5419 26.0885 16.3115 26.376 17.1081 26.3768C17.9781 26.3754 18.8127 26.0326 19.4326 25.4221C20.0525 24.8117 20.408 23.9824 20.4228 23.1125L31.8846 16.8996C32.4642 17.3541 33.1858 17.6028 33.924 17.6028C34.8033 17.602 35.6463 17.2523 36.2681 16.6306C36.8898 16.0089 37.2394 15.1658 37.2403 14.2866C37.2394 13.4073 36.8898 12.5643 36.2681 11.9425C35.6463 11.3208 34.8033 10.9712 33.924 10.9704" fill="white"/>
</svg>
