<svg width="35" height="20" viewBox="0 0 35 20" fill="none" xmlns="http://www.w3.org/2000/svg">
<g id="Group 2034">
<g id="Group">
<path id="Vector" d="M9.79777 19.4941C15.1751 19.4941 19.5343 15.3277 19.5343 10.1883C19.5343 5.04889 15.1751 0.882568 9.79777 0.882568C4.42042 0.882568 0.0612183 5.04889 0.0612183 10.1883C0.0612183 15.3277 4.42042 19.4941 9.79777 19.4941Z" fill="white"/>
<path id="Vector_2" d="M25.3736 18.9008C28.0737 18.9008 30.2625 15 30.2625 10.1882C30.2625 5.37635 28.0737 1.47559 25.3736 1.47559C22.6736 1.47559 20.4848 5.37635 20.4848 10.1882C20.4848 15 22.6736 18.9008 25.3736 18.9008Z" fill="white"/>
<path id="Vector_3" d="M32.8844 18.0354C33.8565 18.0354 34.6444 14.5221 34.6444 10.1882C34.6444 5.85436 33.8565 2.34106 32.8844 2.34106C31.9124 2.34106 31.1245 5.85436 31.1245 10.1882C31.1245 14.5221 31.9124 18.0354 32.8844 18.0354Z" fill="white"/>
</g>
</g>
</svg>
