<svg width="25" height="27" viewBox="0 0 25 27" fill="none" xmlns="http://www.w3.org/2000/svg">
<g id="Group 2042">
<path id="Path 38" d="M24.0612 0.998067L20.2712 25.202C20.196 25.4352 20.0823 25.6455 19.9379 25.8188C19.7935 25.9921 19.6216 26.1246 19.4337 26.2073C19.2457 26.2901 19.046 26.3212 18.8478 26.2988C18.6496 26.2763 18.4574 26.2006 18.2841 26.0769L12.8899 20.8421L12.828 20.7838L9.54339 17.5885L9.52757 17.5794L9.51175 17.5702L9.51887 17.5119L9.54198 17.532L9.5578 17.3862C9.5578 17.3862 19.2647 6.34236 19.6636 5.86663C20.0625 5.3909 19.9242 5.30326 19.9242 5.30326C19.9544 4.73092 19.2042 5.30326 19.2042 5.30326L6.34378 15.6382L0.988506 13.356C0.988506 13.356 0.159038 12.9917 0.0827189 12.1806C0.00639999 11.3694 1.01153 10.9374 1.01153 10.9374L22.3045 0.365494C22.3045 0.365494 24.0612 -0.613231 24.0612 0.998067Z" fill="white"/>
</g>
</svg>
