<svg width="81" height="81" viewBox="0 0 81 81" fill="none" xmlns="http://www.w3.org/2000/svg">
<rect opacity="0.7" x="1.11204" y="0.947014" width="78.416" height="78.416" rx="11.88" stroke="white" stroke-width="1.584"/>
<rect opacity="0.15" x="9.03206" y="8.867" width="62" height="62" rx="7.92" fill="white"/>
<g clip-path="url(#clip0_11_161)">
<path d="M58.5651 32C58.5651 31.67 58.0701 29.03 56.9151 27.875C55.4301 26.225 53.7801 26.06 52.9551 26.06H52.7901C47.6751 25.73 40.0851 25.73 39.9201 25.73C39.9201 25.73 32.1651 25.73 27.0501 26.06H26.8851C26.0601 26.06 24.4101 26.225 22.9251 27.875C21.7701 29.195 21.2751 31.835 21.2751 32.165C21.2751 32.33 20.9451 35.3 20.9451 38.435V41.24C20.9451 44.375 21.2751 47.345 21.2751 47.51C21.2751 47.84 21.7701 50.48 22.9251 51.635C24.2451 53.12 25.8951 53.285 26.8851 53.45C27.0501 53.45 27.2151 53.45 27.3801 53.45C30.3501 53.78 39.4251 53.78 39.7551 53.78C39.7551 53.78 47.5101 53.78 52.6251 53.45H52.7901C53.6151 53.285 55.2651 53.12 56.7501 51.635C57.9051 50.315 58.4001 47.675 58.4001 47.345C58.4001 47.18 58.7301 44.21 58.7301 41.075V38.27C58.8951 35.3 58.5651 32.165 58.5651 32ZM46.3551 40.085L36.4551 45.365C36.2901 45.365 36.2901 45.53 36.1251 45.53C35.9601 45.53 35.7951 45.53 35.7951 45.365C35.6301 45.2 35.4651 45.035 35.4651 44.705V33.98C35.4651 33.65 35.6301 33.485 35.7951 33.32C35.9601 33.155 36.2901 33.155 36.6201 33.32L46.5201 38.6C46.8501 38.765 47.0151 38.93 47.0151 39.26C47.0151 39.59 46.6851 39.92 46.3551 40.085Z" fill="white"/>
</g>
<defs>
<clipPath id="clip0_11_161">
<rect width="39.6" height="39.6" fill="white" transform="translate(20.1201 19.955)"/>
</clipPath>
</defs>
</svg>
