<svg width="202" height="55" viewBox="0 0 202 55" fill="none" xmlns="http://www.w3.org/2000/svg">
<path fill-rule="evenodd" clip-rule="evenodd" d="M104.1 13.8131H111.727V39.8764H104.1V13.8131Z" fill="white"/>
<path d="M99.1869 24.4474C98.3644 22.9679 97.1939 21.7043 95.7735 20.7625C97.6003 18.7389 98.5529 16.0924 98.4284 13.3867C98.1736 7.75711 93.2786 3.41809 87.5481 3.41809H71.6603V39.8763H89.8356C91.6761 39.8836 93.4868 39.4183 95.0893 38.5262C96.6918 37.6341 98.0309 36.3461 98.9746 34.789C99.9184 33.2318 100.434 31.4593 100.472 29.6459C100.509 27.8326 100.066 26.0409 99.1869 24.4474ZM88.6563 33.6861H79.2753V24.7628H88.603C89.8069 24.7558 90.9643 25.2204 91.8206 26.0544C92.6769 26.8884 93.1619 28.0234 93.169 29.2098C93.1761 30.3962 92.7046 31.5368 91.8583 32.3807C91.012 33.2245 89.8602 33.7025 88.6563 33.7094V33.6861ZM86.6651 18.555H79.2753V9.60835H86.6059C87.8098 9.6006 88.9675 10.0645 89.8244 10.8979C90.6812 11.7313 91.167 12.8661 91.1749 14.0525C91.1827 15.2389 90.712 16.3798 89.8663 17.2242C89.0205 18.0685 87.869 18.5473 86.6651 18.555Z" fill="white"/>
<path d="M201.88 4.49852H193.109L186.265 15.2789L179.414 4.49852H170.644L181.903 22.1875L170.644 39.8764H179.414L186.265 29.096L193.109 39.8764H201.88L190.65 22.1875L201.88 4.49852Z" fill="white"/>
<path d="M138.898 25.376V39.8764H131.283V24.1087C131.283 23.5599 131.171 23.0166 130.954 22.5113C130.736 22.006 130.418 21.5489 130.018 21.1674C129.617 20.786 129.143 20.4878 128.623 20.2908C128.103 20.0938 127.549 20.002 126.992 20.0208C125.893 20.0824 124.861 20.5595 124.11 21.3526C123.36 22.1456 122.948 23.1936 122.962 24.2781V39.8997H115.359V13.8014H122.98V15.0453C125.662 13.8023 128.689 13.4795 131.579 14.1284C133.621 14.6048 135.445 15.7352 136.765 17.3426C138.085 18.95 138.827 20.9435 138.874 23.0108C138.892 23.7934 138.898 24.5818 138.898 25.376Z" fill="white"/>
<path fill-rule="evenodd" clip-rule="evenodd" d="M104.1 3.41809H111.727V10.9048H104.1V3.41809Z" fill="white"/>
<path d="M168.605 13.8131H155.331C151.871 13.8693 148.571 15.2595 146.139 17.6855C143.707 20.1116 142.336 23.3802 142.322 26.7904C142.307 30.2005 143.649 33.4806 146.06 35.9269C148.471 38.3733 151.759 39.7911 155.218 39.8764H155.331C158.157 39.8764 160.984 40.6939 160.984 43.1116C160.984 45.5293 158.424 47.6434 155.331 47.6434C154.59 47.6449 153.856 47.5026 153.171 47.2247C152.486 46.9467 151.863 46.5385 151.338 46.0233C150.813 45.5081 150.396 44.8961 150.111 44.2222C149.826 43.5482 149.679 42.8256 149.677 42.0955H142.056C142.13 45.5163 143.56 48.7725 146.041 51.1662C148.522 53.5599 151.856 54.9004 155.328 54.9004C158.8 54.9004 162.134 53.5599 164.614 51.1662C167.095 48.7725 168.526 45.5163 168.599 42.0955C168.572 40.8118 168.272 39.548 167.718 38.386C167.163 37.224 166.367 36.1898 165.381 35.3505C167.221 33.2557 168.334 30.6367 168.558 27.875C168.782 25.1134 168.105 22.3535 166.626 19.9975H168.605V13.8131ZM155.331 32.3897C154.218 32.385 153.132 32.0558 152.209 31.4433C151.287 30.8309 150.569 29.9629 150.146 28.9487C149.724 27.9346 149.616 26.8199 149.836 25.7452C150.056 24.6706 150.594 23.6842 151.382 22.9107C152.17 22.1371 153.173 21.6111 154.265 21.3989C155.356 21.1867 156.487 21.2979 157.514 21.7185C158.542 22.1391 159.419 22.8502 160.037 23.762C160.655 24.6738 160.984 25.7455 160.984 26.8418C160.983 27.5719 160.835 28.2945 160.55 28.9685C160.265 29.6424 159.848 30.2544 159.323 30.7696C158.798 31.2847 158.176 31.693 157.49 31.9709C156.805 32.2489 156.072 32.3912 155.331 32.3897Z" fill="white"/>
<path d="M57.7546 0.389807C47.5424 0.375847 37.7263 4.34021 30.388 11.4422C29.7921 12.0141 29.2058 12.6147 28.6484 13.225C26.7816 15.2737 25.137 17.5143 23.7421 19.9093C23.2447 20.7664 22.7008 21.5958 22.1131 22.3937C22.0362 22.4994 21.9641 22.6051 21.8824 22.7061C19.3896 26.0186 16.158 28.7036 12.4448 30.5473C8.73164 32.3909 4.63934 33.3424 0.493652 33.326V45.7912C10.7064 45.8077 20.5234 41.8429 27.8603 34.7388C28.4562 34.1669 29.0376 33.5663 29.5999 32.956C31.4641 30.9052 33.1085 28.6649 34.5062 26.2717L34.5975 26.1179C35.068 25.3152 35.5797 24.5373 36.1304 23.7873L36.3658 23.4701C38.8581 20.157 42.0896 17.4716 45.8029 15.6279C49.5163 13.7842 53.6088 12.833 57.7546 12.8502V0.389807Z" fill="#2954FE"/>
<path d="M57.7546 33.3261C53.6081 33.3437 49.5147 32.3927 45.8005 30.549C42.0864 28.7052 38.8541 26.0197 36.361 22.7062C36.289 22.6053 36.2073 22.5043 36.1304 22.3938C35.5448 21.5955 35.0026 20.7661 34.5062 19.9094C33.1088 17.5148 31.4627 15.2743 29.5951 13.2251C29.0376 12.6197 28.4562 12.019 27.8603 11.4471C20.5227 4.34337 10.7066 0.37725 0.493652 0.389923V12.8839C4.63954 12.8664 8.73222 13.8174 12.4456 15.6611C16.159 17.5049 19.3904 20.1905 21.8824 23.5039C21.9641 23.6048 22.041 23.7105 22.1179 23.8114C22.6682 24.5607 23.1782 25.3386 23.646 26.142L23.7469 26.3006C25.1426 28.6925 26.7854 30.9312 28.6484 32.9801C29.2058 33.5904 29.7921 34.1911 30.388 34.7629C37.7249 41.8671 47.5419 45.8318 57.7546 45.8153V33.3261Z" fill="#2954FE"/>
</svg>
