<svg width="194" height="60" viewBox="0 0 194 60" fill="none" xmlns="http://www.w3.org/2000/svg">
<path d="M75.7427 28.9132C77.1962 28.0691 78.3609 27.0182 79.2086 25.779C80.1748 24.3681 80.6655 22.7565 80.6655 20.9919C80.6655 17.6881 79.4573 15.1094 77.0769 13.3261C74.7248 11.5635 71.4883 10.6708 67.4548 10.6708H52.8691V48.9401H68.0375C72.2855 48.9401 75.6868 47.9302 78.1461 45.937C80.6251 43.9273 81.8834 41.1126 81.8834 37.57C81.8834 35.4132 81.2916 33.5576 80.1261 32.0556C79.0803 30.713 77.6072 29.6569 75.7427 28.9132ZM60.7623 17.5681H66.8203C68.7203 17.5681 70.1549 17.9446 71.0868 18.6852C72.0073 19.4165 72.4545 20.3775 72.4545 21.6218C72.4545 22.8662 72.0073 23.8757 71.0868 24.6102C70.1549 25.3508 68.7203 25.7273 66.8203 25.7273H60.7623V17.5681ZM72.1673 40.7457C71.1169 41.6062 69.5136 42.0415 67.4023 42.0415H60.7623V32.6763H67.4023C69.5125 32.6763 71.1181 33.0973 72.1722 33.9237C73.2173 34.7482 73.7253 35.8363 73.7253 37.2544C73.7253 38.746 73.2154 39.887 72.1673 40.7457Z" fill="white"/>
<path d="M92.5468 20.3235H84.6008V48.9387H92.5468V20.3235Z" fill="white"/>
<path d="M171.026 24.6264C169.768 23.0955 168.192 21.8956 166.341 21.0588C164.491 20.223 162.411 19.7968 160.161 19.7968C157.403 19.7968 154.916 20.4371 152.765 21.699C150.609 22.9651 148.898 24.7236 147.678 26.9289C146.458 29.1321 145.84 31.6891 145.84 34.5264C145.84 37.3638 146.44 40.0892 147.622 42.3266C148.808 44.5714 150.513 46.3318 152.688 47.564C154.859 48.7884 157.409 49.4101 160.268 49.4101C163.776 49.4101 166.754 48.5082 169.122 46.7281C171.402 45.0151 172.97 42.5987 173.824 39.5741H165.825C165.404 40.6032 164.811 41.4796 163.962 42.097C162.959 42.8252 161.663 43.1945 160.109 43.1945C158.761 43.1945 157.607 42.8596 156.677 42.1997C155.743 41.5394 155.03 40.5643 154.562 39.297C154.281 38.544 154.081 37.6782 153.964 36.7152H173.964L174.003 36.4607C174.36 34.153 174.271 31.9663 173.732 29.9617C173.193 27.9519 172.283 26.1572 171.026 24.6264ZM154.09 31.4171C154.213 30.8347 154.378 30.2286 154.587 29.6762C155.075 28.3926 155.779 27.4047 156.681 26.7448C157.58 26.0848 158.698 25.7518 160.005 25.7518C161.643 25.7518 162.987 26.2948 164.001 27.3633C164.962 28.3801 165.507 29.7693 165.623 31.4171H154.09Z" fill="white"/>
<path d="M92.7091 10.6697H84.4314V17.5669H92.7091V10.6697Z" fill="white"/>
<path d="M136.225 23.5692C135.285 22.4149 134.183 21.5201 132.941 20.9016C131.458 20.1682 129.722 19.7968 127.783 19.7968C125.409 19.7968 123.28 20.3957 121.459 21.5749C119.64 22.7531 118.197 24.4185 117.172 26.5213C116.152 28.6191 115.633 31.082 115.633 33.8448C115.633 36.6076 116.178 38.9258 117.254 41.0378C118.333 43.1575 119.828 44.8454 121.698 46.0578C123.571 47.273 125.708 47.8897 128.049 47.8897C129.817 47.8897 131.431 47.4987 132.845 46.7258C133.965 46.1146 134.903 45.3057 135.643 44.3178V47.4335C135.643 49.3645 135.146 50.8471 134.17 51.8346C133.19 52.8225 131.701 53.3211 129.743 53.3211C128.055 53.3211 126.728 52.9302 125.799 52.1576C125.039 51.5255 124.376 50.6959 124.221 48.9397H116.56C116.631 51.3974 117.337 53.0533 118.334 54.5046C119.452 56.1308 121.024 57.4019 123.011 58.2802C124.979 59.148 127.262 59.5883 129.796 59.5883C134.051 59.5883 137.438 58.4951 139.861 56.3414C142.299 54.1754 143.535 51.1427 143.535 47.329V20.3223H136.225V23.5692ZM134.825 37.6461C134.322 38.7093 133.611 39.5432 132.709 40.1205C131.809 40.6974 130.722 40.9915 129.478 40.9915C127.679 40.9915 126.281 40.3655 125.2 39.0767C124.124 37.7951 123.579 36.0346 123.579 33.8437C123.579 31.6529 124.124 29.8924 125.2 28.6087C126.267 27.3375 127.706 26.6941 129.478 26.6941C131.249 26.6941 132.814 27.3468 133.915 28.6377C135.026 29.9389 135.589 31.7088 135.589 33.8944C135.589 35.3105 135.332 36.5724 134.825 37.6461Z" fill="white"/>
<path d="M193.243 27.167V20.3236H187.508V10.6697H179.615V20.3236H174.716V27.167H179.615V38.3694C179.615 44.5976 180.814 49.1747 188.294 49.0331L192.989 48.9389V42.5223H190.659C187.335 42.5223 187.52 40.5407 187.52 36.8603L187.507 27.167H193.243Z" fill="white"/>
<path d="M113.702 27.167V20.3236H107.967V10.6697H100.074V20.3236H95.175V27.167H100.074V38.3694C100.074 44.5976 101.273 49.1747 108.753 49.0331L113.448 48.9389V42.5223H111.118C107.794 42.5223 107.979 40.5407 107.979 36.8603L107.966 27.167H113.702Z" fill="white"/>
<path d="M19.8105 17.5679H31.7292L43.9223 29.9546C44.7153 30.7605 44.7194 32.071 43.9302 32.8809L28.2935 48.9489H16.0156L19.7275 45.2594L33.356 31.4132L19.9005 17.5669" fill="#00E0FF"/>
<path d="M24.7091 31.3821H12.7903L0.597413 18.9954C-0.195754 18.1896 -0.199801 16.8791 0.589321 16.0691L16.226 0H28.5039L24.792 3.68964L11.1635 17.5359L24.619 31.3821" fill="#00E0FF"/>
</svg>
