<svg width="232" height="52" viewBox="0 0 232 52" fill="none" xmlns="http://www.w3.org/2000/svg">
<path d="M41.2937 25.7073C44.8682 25.7073 48.4427 25.7254 52.0145 25.6683C52.9598 25.6528 53.1961 25.9018 53.1773 26.8148C52.9356 38.3 43.41 48.8825 31.5398 50.7967C16.7289 53.1881 3.43266 44.2604 0.628938 30.0466C-2.15599 15.9236 8.86554 1.73832 23.7113 0.337687C26.7487 0.0523738 26.7406 0.0523755 26.7514 2.95739C26.7621 5.8624 26.7863 8.8141 26.8051 11.7425L26.8239 11.7243C18.4557 11.4442 11.398 18.7404 12.2494 26.7914C13.1624 35.4468 20.9855 41.0934 29.7592 39.4334C36.3523 38.1858 40.9795 32.6897 41.3072 25.7047L41.2937 25.7073Z" fill="#2455E5"/>
<path d="M88.4629 30.1063C85.635 30.1063 82.9548 30.0829 80.2746 30.1244C79.5361 30.1244 79.2676 29.9636 79.2971 29.2088C79.3562 27.6163 79.3562 26.0159 79.2971 24.4233C79.2702 23.6945 79.5656 23.5778 80.2263 23.5804C85.0603 23.6037 89.8943 23.5933 94.7069 23.5804C95.2037 23.5804 95.6575 23.5026 95.6978 24.2547C95.9932 30.0596 94.9351 35.4779 90.4529 39.7032C85.2993 44.5639 79.0446 45.8219 72.2636 43.8376C65.3912 41.8301 61.0245 37.2184 59.5904 30.4279C57.2459 19.3266 65.6061 9.27838 77.3662 8.99047C82.8554 8.85819 87.531 10.9124 91.3311 14.7823C91.6721 15.1325 91.7554 15.327 91.3123 15.6616C89.8755 16.7536 88.4361 17.8482 87.0638 19.0128C86.3521 19.6171 86.1426 18.9661 85.815 18.6704C81.5583 14.8524 75.3547 14.4789 70.7033 17.7755C65.4074 21.5339 64.4218 28.7264 68.5092 33.8309C69.46 35.0038 70.6429 35.9823 71.9889 36.7097C73.3349 37.437 74.8173 37.8985 76.3497 38.0675C77.8821 38.2364 79.434 38.1094 80.9151 37.6938C82.3962 37.2782 83.777 36.5823 84.9771 35.6465C86.7442 34.2355 87.8184 32.3888 88.4629 30.1063Z" fill="white"/>
<path d="M168.093 31.066C164.601 31.066 161.11 31.0997 157.619 31.0452C156.577 31.0297 156.526 31.3176 156.886 32.1398C159.518 38.1806 167.773 39.213 172.003 33.9736C172.54 33.3147 172.867 33.2681 173.563 33.6338C174.734 34.2572 175.944 34.8099 177.186 35.2886C178.134 35.6465 177.965 36.0667 177.548 36.7022C172.752 43.9881 161.851 45.4925 155.213 39.698C150.714 35.7736 149.087 30.817 150.647 25.1729C152.237 19.4304 156.287 15.921 162.348 14.7357C171.688 12.92 180.629 20.6027 179.944 29.7795C179.866 30.8325 179.487 31.1204 178.405 31.0971C174.976 31.0193 171.533 31.066 168.093 31.066ZM173.284 25.8784C171.611 22.3769 169.006 20.5016 165.27 20.4056C161.663 20.3122 158.945 21.9281 157.197 24.994C156.98 25.3727 156.534 25.8836 157.544 25.8836C162.716 25.881 167.883 25.8862 173.284 25.8862V25.8784Z" fill="white"/>
<path d="M121.53 17.1997C121.554 16.8543 121.554 16.5077 121.53 16.1622C121.415 15.4412 121.777 15.3089 122.435 15.3244C123.907 15.3633 125.389 15.3633 126.856 15.3244C127.498 15.3063 127.688 15.4956 127.686 16.1207C127.666 24.6542 127.666 33.1868 127.686 41.7185C127.686 42.341 127.489 42.5459 126.848 42.52C125.733 42.4785 124.616 42.52 123.499 42.52C121.619 42.52 121.619 42.52 121.466 40.6317C117.319 43.2255 112.928 44.0348 108.196 42.59C104.972 41.6232 102.195 39.6065 100.338 36.8838C96.4739 31.372 97.1453 23.8864 101.91 19.0231C106.308 14.5126 114.07 12.5621 121.53 17.1997ZM121.53 28.9183C121.542 27.2408 121.04 25.5975 120.086 24.1956C119.132 22.7937 117.769 21.6961 116.17 21.0412C114.571 20.3863 112.807 20.2035 111.101 20.5159C109.394 20.8283 107.822 21.6218 106.582 22.7964C105.341 23.9709 104.489 25.4739 104.133 27.1157C103.776 28.7575 103.931 30.4645 104.578 32.0214C105.224 33.5783 106.334 34.9153 107.767 35.8638C109.199 36.8122 110.891 37.3296 112.628 37.3506C114.964 37.37 117.213 36.4942 118.881 34.9151C120.55 33.3359 121.503 31.1823 121.53 28.9261V28.9183Z" fill="white"/>
<path d="M216.516 14.4996C218.487 14.4668 220.445 14.8124 222.277 15.5162C224.109 16.22 225.777 17.2681 227.187 18.5997C228.596 19.9312 229.717 21.5198 230.486 23.2731C231.254 25.0265 231.654 26.9098 231.664 28.8137C231.673 30.7177 231.29 32.6045 230.538 34.3646C229.787 36.1247 228.68 37.7231 227.284 39.0671C225.888 40.4112 224.229 41.474 222.404 42.1941C220.579 42.9142 218.624 43.2771 216.653 43.2618C208.497 43.3033 201.745 36.8967 201.697 29.0662C201.649 20.9762 208.196 14.5411 216.516 14.4996ZM225.378 28.8924C225.378 24.164 221.374 20.2967 216.559 20.3537C214.821 20.3573 213.123 20.8579 211.679 21.7924C210.235 22.7268 209.11 24.0532 208.445 25.6044C207.781 27.1556 207.607 28.862 207.946 30.5086C208.284 32.1551 209.12 33.6679 210.347 34.8564C211.575 36.0448 213.139 36.8556 214.843 37.1865C216.547 37.5173 218.314 37.3535 219.922 36.7156C221.53 36.0777 222.906 34.9943 223.877 33.6021C224.848 32.2098 225.37 30.571 225.378 28.8924Z" fill="white"/>
<path d="M134.636 29.1051C134.636 26.6462 134.612 24.1899 134.652 21.7336C134.652 21.0592 134.469 20.8284 133.76 20.8569C132.874 20.8906 131.666 21.137 131.177 20.6961C130.53 20.1099 130.967 18.9168 130.957 17.9882C130.922 15.3945 130.957 15.3348 133.586 15.3633C134.536 15.3633 134.681 15.0313 134.66 14.2454C134.604 12.824 134.684 11.3923 134.628 9.9787C134.598 9.22132 134.77 8.8971 135.646 8.94119C137.026 9.01382 138.414 8.99826 139.797 8.94119C140.584 8.91007 140.796 9.20056 140.77 9.90866C140.721 11.2885 140.842 12.6736 140.729 14.0587C140.638 15.187 141.068 15.4204 142.147 15.3556C143.885 15.2648 145.639 15.3556 147.373 15.3167C148.072 15.3011 148.311 15.506 148.281 16.1907C148.23 17.4383 148.222 18.6937 148.281 19.9387C148.319 20.6857 148.061 20.901 147.304 20.8829C145.424 20.8362 143.544 20.8829 141.664 20.8543C140.99 20.8543 140.724 21.0074 140.729 21.7077C140.762 26.0185 140.708 30.3293 140.77 34.6402C140.805 37.0653 142.18 38.2533 144.682 38.191C145.308 38.1822 145.932 38.1197 146.546 38.0043C148.257 37.6619 148.254 37.6437 148.254 39.3893V39.519C148.254 42.3333 148.08 42.5382 145.177 43.0362C143.815 43.2939 142.42 43.3412 141.044 43.1762C136.9 42.6056 134.757 40.2972 134.663 36.212C134.606 33.8413 134.663 31.4706 134.663 29.0999L134.636 29.1051Z" fill="white"/>
<path d="M26.8051 11.7347C31.3921 11.7113 35.979 11.7009 40.566 11.6543C41.4414 11.6543 41.3072 12.173 41.3072 12.6918C41.3072 17.0337 41.3072 21.3748 41.3072 25.715H41.3313C36.8357 25.715 32.3401 25.715 27.8418 25.715C27.2106 25.715 26.738 25.715 26.7487 24.8695C26.8078 20.4912 26.8132 16.1129 26.8374 11.7347H26.8051Z" fill="#17E5A1"/>
<path d="M198.251 30.3682C198.251 34.0306 198.206 37.6956 198.281 41.358C198.3 42.3722 197.972 42.5823 197.011 42.5304C195.539 42.45 194.057 42.4733 192.588 42.5304C191.86 42.5563 191.696 42.3021 191.699 41.6459C191.717 34.1015 191.717 26.5571 191.699 19.0128C191.699 18.2346 191.994 18.0946 192.706 18.1153C194.223 18.1594 195.746 18.1828 197.271 18.1153C198.133 18.0712 198.294 18.3591 198.286 19.1295C198.23 22.8671 198.251 26.6177 198.251 30.3682Z" fill="white"/>
<path d="M184.979 42.5563C183.905 42.507 182.506 42.839 181.886 42.3099C181.152 41.6822 181.668 40.2842 181.655 39.2233C181.62 36.1342 181.655 36.1108 184.789 36.142C185.895 36.142 187.305 35.6803 188.011 36.3391C188.718 36.9979 188.224 38.3778 188.237 39.436C188.293 42.5096 188.264 42.5096 184.979 42.5563Z" fill="white"/>
<path d="M198.251 12.3961C198.147 13.2235 198.716 14.5645 198.02 15.1558C197.435 15.6538 196.079 15.3607 195.066 15.327C193.976 15.2907 192.523 15.8147 191.9 15.1014C191.363 14.4918 191.693 13.1353 191.72 12.1108C191.747 11.0862 191.237 9.70634 191.938 9.15387C192.59 8.63512 193.973 8.96972 195.034 8.96972C196.049 8.96972 197.384 8.65069 197.988 9.1435C198.724 9.73229 198.136 11.0733 198.241 12.0822C198.257 12.1237 198.251 12.1678 198.251 12.3961Z" fill="white"/>
</svg>
