<svg width="31" height="29" viewBox="0 0 31 29" fill="none" xmlns="http://www.w3.org/2000/svg">
<g id="tabler:gift-filled">
<path id="Vector" d="M14.25 16.9167V26.5834H9.25C8.25544 26.5834 7.30161 26.2015 6.59835 25.5217C5.89509 24.8418 5.5 23.9198 5.5 22.9584V18.1251C5.5 17.8046 5.6317 17.4972 5.86612 17.2706C6.10054 17.044 6.41848 16.9167 6.75 16.9167H14.25ZM24.25 16.9167C24.5815 16.9167 24.8995 17.044 25.1339 17.2706C25.3683 17.4972 25.5 17.8046 25.5 18.1251V22.9584C25.5 23.9198 25.1049 24.8418 24.4017 25.5217C23.6984 26.2015 22.7446 26.5834 21.75 26.5834H16.75V16.9167H24.25ZM21.125 2.41672C21.8631 2.41658 22.5893 2.59697 23.2359 2.9411C23.8826 3.28524 24.4286 3.78193 24.8232 4.38494C25.2178 4.98795 25.4482 5.67767 25.4929 6.3899C25.5376 7.10213 25.3951 7.81371 25.0788 8.45839H25.5C26.163 8.45839 26.7989 8.713 27.2678 9.16622C27.7366 9.61943 28 10.2341 28 10.8751V12.0834C28 12.7243 27.7366 13.339 27.2678 13.7922C26.7989 14.2454 26.163 14.5001 25.5 14.5001H16.75V8.45839H14.25V14.5001H5.5C4.83696 14.5001 4.20107 14.2454 3.73223 13.7922C3.26339 13.339 3 12.7243 3 12.0834V10.8751C3 10.2341 3.26339 9.61943 3.73223 9.16622C4.20107 8.713 4.83696 8.45839 5.5 8.45839H5.92125C5.64361 7.89187 5.49972 7.27277 5.5 6.64589C5.5 4.31018 7.45875 2.41672 9.85375 2.41672C12.0475 2.38047 13.9938 3.73623 15.33 5.96198L15.5 6.2556C16.7913 3.94285 18.7 2.49285 20.8638 2.41914L21.125 2.41672ZM9.875 4.83339C9.37772 4.83339 8.90081 5.02435 8.54917 5.36426C8.19754 5.70417 8 6.16519 8 6.64589C8 7.1266 8.19754 7.58761 8.54917 7.92752C8.90081 8.26743 9.37772 8.45839 9.875 8.45839H13.8037C12.8775 6.15652 11.3675 4.80923 9.875 4.83339ZM21.1038 4.83339C19.6287 4.80923 18.1225 6.15772 17.1963 8.45839H21.125C21.6223 8.45567 22.0981 8.2621 22.4477 7.92026C22.7974 7.57842 22.9922 7.11633 22.9894 6.63562C22.9866 6.15492 22.7863 5.69498 22.4327 5.357C22.0791 5.01901 21.601 4.83067 21.1038 4.83339Z" fill="url(#paint0_linear_29_4)"/>
</g>
<defs>
<linearGradient id="paint0_linear_29_4" x1="3" y1="5.74341" x2="27.2744" y2="27.3968" gradientUnits="userSpaceOnUse">
<stop stop-color="#7EF2C2"/>
<stop offset="0.5" stop-color="#36EF99"/>
<stop offset="1" stop-color="#04673E"/>
</linearGradient>
</defs>
</svg>
