<svg width="61" height="81" viewBox="0 0 61 81" fill="none" xmlns="http://www.w3.org/2000/svg">
<g filter="url(#filter0_d_56_33)">
<path d="M20.2258 41.6001C23.6167 44.5688 26.8006 47.6275 30.2596 50.3185C34.9171 53.9421 39.7775 57.2947 44.5701 60.7359C45.8893 61.6833 46.3747 63.0189 45.6928 64.1756C44.9919 65.3637 43.4757 65.6482 42.2259 64.6926C36.1116 60.0171 29.9742 55.3666 23.9421 50.5799C21.3143 48.4948 18.9256 46.0985 16.4152 43.8567C14.5153 42.1629 14.5264 40.5153 16.4602 38.8812C23.0592 33.3059 29.6538 27.7252 36.2436 22.1393C38.4061 20.2973 40.4579 18.3213 42.619 16.4754C43.1245 16.027 43.7632 15.766 44.4319 15.7344C45.4157 15.7697 45.7971 16.9528 45.1197 17.9031C44.442 18.8524 43.6741 19.731 42.8273 20.526C35.7983 27.1174 28.7547 33.6925 21.6963 40.2514C21.2767 40.6435 20.8507 41.0278 20.2258 41.6001Z" fill="white"/>
</g>
<defs>
<filter id="filter0_d_56_33" x="0" y="0.734375" width="61.0005" height="79.5315" filterUnits="userSpaceOnUse" color-interpolation-filters="sRGB">
<feFlood flood-opacity="0" result="BackgroundImageFix"/>
<feColorMatrix in="SourceAlpha" type="matrix" values="0 0 0 0 0 0 0 0 0 0 0 0 0 0 0 0 0 0 127 0" result="hardAlpha"/>
<feOffset/>
<feGaussianBlur stdDeviation="7.5"/>
<feComposite in2="hardAlpha" operator="out"/>
<feColorMatrix type="matrix" values="0 0 0 0 1 0 0 0 0 1 0 0 0 0 1 0 0 0 0.62 0"/>
<feBlend mode="normal" in2="BackgroundImageFix" result="effect1_dropShadow_56_33"/>
<feBlend mode="normal" in="SourceGraphic" in2="effect1_dropShadow_56_33" result="shape"/>
</filter>
</defs>
</svg>
