<svg width="61" height="81" viewBox="0 0 61 81" fill="none" xmlns="http://www.w3.org/2000/svg">
<g filter="url(#filter0_d_56_34)">
<path d="M40.7752 41.6001C37.3843 44.5688 34.2004 47.6275 30.7414 50.3185C26.0838 53.9421 21.2235 57.2947 16.4308 60.7359C15.1116 61.6833 14.6263 63.0189 15.3082 64.1756C16.0091 65.3637 17.5253 65.6482 18.7751 64.6926C24.8894 60.0171 31.0268 55.3666 37.0589 50.5799C39.6867 48.4948 42.0754 46.0985 44.5857 43.8567C46.4857 42.1629 46.4746 40.5153 44.5408 38.8812C37.9417 33.3059 31.3472 27.7252 24.7574 22.1393C22.5949 20.2973 20.5431 18.3213 18.382 16.4754C17.8765 16.027 17.2378 15.766 16.5691 15.7344C15.5853 15.7697 15.2039 16.9528 15.8813 17.9031C16.5589 18.8524 17.3268 19.731 18.1737 20.526C25.2027 27.1174 32.2463 33.6925 39.3046 40.2514C39.7243 40.6435 40.1503 41.0278 40.7752 41.6001Z" fill="white"/>
</g>
<defs>
<filter id="filter0_d_56_34" x="0.000488281" y="0.734375" width="61.0005" height="79.5315" filterUnits="userSpaceOnUse" color-interpolation-filters="sRGB">
<feFlood flood-opacity="0" result="BackgroundImageFix"/>
<feColorMatrix in="SourceAlpha" type="matrix" values="0 0 0 0 0 0 0 0 0 0 0 0 0 0 0 0 0 0 127 0" result="hardAlpha"/>
<feOffset/>
<feGaussianBlur stdDeviation="7.5"/>
<feComposite in2="hardAlpha" operator="out"/>
<feColorMatrix type="matrix" values="0 0 0 0 1 0 0 0 0 1 0 0 0 0 1 0 0 0 0.62 0"/>
<feBlend mode="normal" in2="BackgroundImageFix" result="effect1_dropShadow_56_34"/>
<feBlend mode="normal" in="SourceGraphic" in2="effect1_dropShadow_56_34" result="shape"/>
</filter>
</defs>
</svg>
