<svg width="40" height="40" viewBox="0 0 40 40" fill="none" xmlns="http://www.w3.org/2000/svg">
<g id="material-symbols:rocket-launch-rounded">
<path id="Vector" d="M10.7088 20.157C11.3986 18.406 12.2279 16.7213 13.1968 15.1029C14.1657 13.4845 15.2598 11.959 16.4792 10.5264L14.4098 10.0886C13.8792 9.98249 13.3618 10.009 12.8578 10.1682C12.3537 10.3274 11.9159 10.5927 11.5445 10.9641L6.5302 15.9784C6.13225 16.3764 5.97943 16.8539 6.07176 17.4111C6.16408 17.9682 6.47608 18.3529 7.00776 18.5651L10.7088 20.157ZM34.1088 4.63657C31.2965 4.50392 28.6238 5.0478 26.0907 6.26821C23.5576 7.48861 21.2955 9.09372 19.3047 11.0835C18.0312 12.357 16.91 13.7366 15.9411 15.2223C14.9722 16.708 14.1307 18.2733 13.4165 19.9182C13.2838 20.2631 13.2175 20.6149 13.2175 20.9736C13.2175 21.3323 13.3502 21.6438 13.6155 21.908L18.59 26.8825C18.8553 27.1478 19.1673 27.2805 19.526 27.2805C19.8847 27.2805 20.2359 27.2141 20.5798 27.0815C22.2247 26.3651 23.79 25.5225 25.2757 24.5536C26.7614 23.5847 28.141 22.4641 29.4144 21.1917C31.4042 19.2019 33.0093 16.9404 34.2298 14.4073C35.4502 11.8741 35.9935 9.2009 35.8598 6.38759C35.8598 6.17535 35.8067 5.9631 35.7006 5.75086C35.5945 5.53861 35.4618 5.3529 35.3027 5.19372C35.1435 5.03453 34.9578 4.90188 34.7455 4.79576C34.5333 4.68963 34.321 4.63657 34.1088 4.63657ZM24.0006 16.4958C23.3904 15.8856 23.0853 15.1363 23.0853 14.2481C23.0853 13.3598 23.3904 12.6101 24.0006 11.9988C24.6108 11.3876 25.3606 11.0824 26.2499 11.0835C27.1392 11.0846 27.8884 11.3897 28.4975 11.9988C29.1067 12.608 29.4118 13.3577 29.4129 14.2481C29.4139 15.1384 29.1088 15.8877 28.4975 16.4958C27.8863 17.1038 27.1371 17.4089 26.2499 17.4111C25.3627 17.4132 24.6129 17.1081 24.0006 16.4958ZM20.3394 29.7876L21.9312 33.4886C22.1435 34.0192 22.5282 34.3376 23.0853 34.4437C23.6424 34.5498 24.12 34.4039 24.518 34.006L29.5322 28.9917C29.9037 28.6202 30.169 28.1761 30.3282 27.6593C30.4873 27.1425 30.5139 26.6182 30.4078 26.0866L30.0098 24.0172C28.5506 25.2376 27.0187 26.3322 25.4142 27.3011C23.8096 28.27 22.118 29.0989 20.3394 29.7876ZM7.40571 26.3651C8.33429 25.4366 9.46184 24.9654 10.7884 24.9516C12.1149 24.9378 13.2424 25.3957 14.171 26.3253C15.0996 27.255 15.5639 28.3825 15.5639 29.708C15.5639 31.0335 15.0996 32.161 14.171 33.0907C12.8976 34.3641 11.3917 35.1202 9.65339 35.359C7.9151 35.5978 6.17098 35.8366 4.42102 36.0753C4.6598 34.3243 4.90547 32.5802 5.15804 30.843C5.41061 29.1058 6.15984 27.6131 7.40571 26.3651Z" fill="white"/>
</g>
</svg>
