<svg width="24" height="24" viewBox="0 0 24 24" fill="none" xmlns="http://www.w3.org/2000/svg">
<path d="M16.41 18.1402C16.2829 18.1384 16.1581 18.1056 16.0466 18.0446C15.935 17.9836 15.8401 17.8962 15.77 17.7902C15.6764 17.6249 15.6482 17.4306 15.6907 17.2455C15.7333 17.0604 15.8436 16.898 16 16.7902C17.3422 15.9262 18.3685 14.6508 18.9255 13.1549C19.4825 11.659 19.5401 10.023 19.0899 8.49162C18.6396 6.96023 17.7056 5.6158 16.4275 4.65946C15.1495 3.70312 13.5962 3.18629 12 3.18629C10.4038 3.18629 8.85045 3.70312 7.57243 4.65946C6.29442 5.6158 5.3604 6.96023 4.91011 8.49162C4.45983 10.023 4.5175 11.659 5.07448 13.1549C5.63146 14.6508 6.65781 15.9262 7.99999 16.7902C8.11277 16.9141 8.1808 17.0722 8.19323 17.2393C8.20565 17.4064 8.16175 17.5729 8.06854 17.7122C7.97532 17.8514 7.83815 17.9554 7.67892 18.0076C7.51968 18.0598 7.34755 18.0572 7.18999 18.0002C5.57495 16.9611 4.3398 15.427 3.66935 13.6274C2.9989 11.8279 2.92922 9.85956 3.47071 8.01707C4.01221 6.17459 5.13578 4.55699 6.67329 3.40632C8.2108 2.25565 10.0796 1.63379 12 1.63379C13.9204 1.63379 15.7892 2.25565 17.3267 3.40632C18.8642 4.55699 19.9878 6.17459 20.5293 8.01707C21.0708 9.85956 21.0011 11.8279 20.3306 13.6274C19.6602 15.427 18.425 16.9611 16.81 18.0002C16.6929 18.0843 16.554 18.1329 16.41 18.1402Z" fill="white"/>
<path d="M16.41 22.3701H7.58997C7.39105 22.3701 7.20029 22.2911 7.05964 22.1505C6.91898 22.0098 6.83997 21.8191 6.83997 21.6201V17.3901C6.83997 17.1912 6.91898 17.0005 7.05964 16.8598C7.20029 16.7192 7.39105 16.6401 7.58997 16.6401C7.78888 16.6401 7.97964 16.7192 8.1203 16.8598C8.26095 17.0005 8.33997 17.1912 8.33997 17.3901V20.8701H15.66V17.3901C15.66 17.1912 15.739 17.0005 15.8796 16.8598C16.0203 16.7192 16.2111 16.6401 16.41 16.6401C16.6089 16.6401 16.7996 16.7192 16.9403 16.8598C17.0809 17.0005 17.16 17.1912 17.16 17.3901V21.6201C17.16 21.8191 17.0809 22.0098 16.9403 22.1505C16.7996 22.2911 16.6089 22.3701 16.41 22.3701Z" fill="white"/>
<path d="M9.16003 14.5502C8.96112 14.5502 8.77036 14.4712 8.6297 14.3305C8.48905 14.1899 8.41003 13.9991 8.41003 13.8002V10.2002C8.41003 10.0013 8.48905 9.81052 8.6297 9.66987C8.77036 9.52921 8.96112 9.4502 9.16003 9.4502C9.35895 9.4502 9.54971 9.52921 9.69036 9.66987C9.83102 9.81052 9.91003 10.0013 9.91003 10.2002V13.8002C9.90744 13.9983 9.82759 14.1876 9.6875 14.3277C9.54741 14.4678 9.35814 14.5476 9.16003 14.5502Z" fill="white"/>
<path d="M14.5599 14.5502C14.3618 14.5476 14.1726 14.4678 14.0325 14.3277C13.8924 14.1876 13.8125 13.9983 13.8099 13.8002V10.2002C13.8099 10.0013 13.889 9.81052 14.0296 9.66987C14.1703 9.52921 14.361 9.4502 14.5599 9.4502C14.7588 9.4502 14.9496 9.52921 15.0903 9.66987C15.2309 9.81052 15.3099 10.0013 15.3099 10.2002V13.8002C15.3099 13.9991 15.2309 14.1899 15.0903 14.3305C14.9496 14.4712 14.7588 14.5502 14.5599 14.5502Z" fill="white"/>
<path d="M10.58 22.3903C10.3818 22.3877 10.1926 22.3078 10.0525 22.1677C9.9124 22.0276 9.83255 21.8384 9.82996 21.6403V19.5103C9.82996 19.3113 9.90897 19.1206 10.0496 18.9799C10.1903 18.8393 10.381 18.7603 10.58 18.7603C10.7789 18.7603 10.9696 18.8393 11.1103 18.9799C11.2509 19.1206 11.33 19.3113 11.33 19.5103V21.6403C11.33 21.8392 11.2509 22.0299 11.1103 22.1706C10.9696 22.3112 10.7789 22.3903 10.58 22.3903Z" fill="white"/>
<path d="M13.42 22.3903C13.2211 22.3903 13.0304 22.3112 12.8897 22.1706C12.7491 22.0299 12.67 21.8392 12.67 21.6403V19.5103C12.67 19.3113 12.7491 19.1206 12.8897 18.9799C13.0304 18.8393 13.2211 18.7603 13.42 18.7603C13.619 18.7603 13.8097 18.8393 13.9504 18.9799C14.091 19.1206 14.17 19.3113 14.17 19.5103V21.6403C14.1675 21.8384 14.0876 22.0276 13.9475 22.1677C13.8074 22.3078 13.6182 22.3877 13.42 22.3903Z" fill="white"/>
</svg>
