<svg width="24" height="24" viewBox="0 0 24 24" fill="none" xmlns="http://www.w3.org/2000/svg">
<path d="M18.05 14.9996C17.8511 14.9996 17.6603 14.9206 17.5196 14.78C17.379 14.6393 17.3 14.4486 17.3 14.2496C17.2989 14.151 17.3179 14.0532 17.3557 13.9621C17.3935 13.871 17.4494 13.7885 17.52 13.7196C17.6263 13.6163 17.76 13.5454 17.9052 13.5153C18.0505 13.4852 18.2013 13.4971 18.34 13.5496C18.4311 13.5887 18.5129 13.6466 18.58 13.7196C18.6505 13.7885 18.7064 13.871 18.7442 13.9621C18.782 14.0532 18.801 14.151 18.8 14.2496C18.8004 14.3462 18.7799 14.4417 18.74 14.5296C18.7084 14.6251 18.6534 14.711 18.58 14.7796C18.5125 14.8498 18.4306 14.9044 18.34 14.9396C18.2485 14.9795 18.1497 15 18.05 14.9996Z" fill="#fff"/>
<path d="M5.27002 14.9996C5.07118 14.9994 4.88054 14.9203 4.74002 14.7796C4.66659 14.711 4.61158 14.625 4.58002 14.5296C4.54121 14.4413 4.5208 14.346 4.52002 14.2496C4.51971 14.1498 4.54014 14.0511 4.58002 13.9596C4.65512 13.7785 4.79898 13.6347 4.98002 13.5596C5.07157 13.52 5.17027 13.4995 5.27002 13.4995C5.36978 13.4995 5.46848 13.52 5.56002 13.5596C5.65132 13.5936 5.73347 13.6484 5.80002 13.7196C5.94072 13.8601 6.01985 14.0507 6.02002 14.2496C6.02824 14.3334 6.02147 14.4181 6.00002 14.4996C5.96463 14.5931 5.91014 14.6783 5.84002 14.7496C5.76845 14.8296 5.68052 14.8934 5.58218 14.9365C5.48384 14.9796 5.37739 15.0011 5.27002 14.9996Z" fill="#ffffff"/>
<path d="M11.9999 10.3298C11.8265 10.3282 11.659 10.2665 11.5258 10.1553C11.3927 10.0441 11.3023 9.89017 11.2699 9.71976C11.167 9.06701 11.199 8.40007 11.3642 7.7602C11.5293 7.12034 11.824 6.52117 12.2299 5.99976C12.7706 5.42654 13.4334 4.98238 14.1691 4.70021C14.9048 4.41804 15.6946 4.30509 16.4799 4.36976C16.6789 4.36976 16.8696 4.44878 17.0103 4.58943C17.1509 4.73008 17.2299 4.92085 17.2299 5.11976C17.2299 5.31867 17.1509 5.50944 17.0103 5.65009C16.8696 5.79074 16.6789 5.86976 16.4799 5.86976C15.9134 5.81812 15.3424 5.89267 14.8082 6.08806C14.2739 6.28344 13.7895 6.59481 13.3899 6.99976C12.8717 7.71176 12.6527 8.59835 12.7799 9.46976C12.8123 9.66428 12.7679 9.86378 12.6559 10.0261C12.544 10.1885 12.3733 10.3009 12.1799 10.3398L11.9999 10.3298Z" fill="#fff"/>
<path d="M5.99999 19.6096C4.57047 19.6096 3.1995 19.0417 2.18868 18.0309C1.17786 17.0201 0.609985 15.6491 0.609985 14.2196C0.609985 12.7901 1.17786 11.4191 2.18868 10.4083C3.1995 9.39746 4.57047 8.82959 5.99999 8.82959C6.1989 8.82959 6.38966 8.90861 6.53032 9.04926C6.67097 9.18991 6.74999 9.38068 6.74999 9.57959C6.74999 9.7785 6.67097 9.96927 6.53032 10.1099C6.38966 10.2506 6.1989 10.3296 5.99999 10.3296C5.48129 10.3201 4.966 10.4153 4.48491 10.6095C4.00382 10.8036 3.56681 11.0927 3.19999 11.4596C2.47572 12.1916 2.06948 13.1798 2.06948 14.2096C2.06948 15.2394 2.47572 16.2276 3.19999 16.9596C3.94235 17.66 4.92437 18.0501 5.94499 18.0501C6.96561 18.0501 7.94762 17.66 8.68999 16.9596C8.83061 16.8191 9.02124 16.7402 9.21999 16.7402C9.41874 16.7402 9.60936 16.8191 9.74999 16.9596C9.89044 17.1002 9.96933 17.2908 9.96933 17.4896C9.96933 17.6883 9.89044 17.879 9.74999 18.0196C8.75791 19.0224 7.41051 19.5937 5.99999 19.6096Z" fill="#fff"/>
<path d="M18.05 19.6096C17.3399 19.6069 16.6375 19.4633 15.9834 19.1869C15.3294 18.9105 14.7367 18.5069 14.24 17.9996C14.0995 17.8589 14.0206 17.6683 14.0206 17.4696C14.0206 17.2708 14.0995 17.0802 14.24 16.9396C14.3806 16.7991 14.5712 16.7202 14.77 16.7202C14.9687 16.7202 15.1593 16.7991 15.3 16.9396C16.0423 17.64 17.0243 18.0301 18.045 18.0301C19.0656 18.0301 20.0476 17.64 20.79 16.9396C21.5142 16.2075 21.9205 15.2193 21.9205 14.1896C21.9205 13.1598 21.5142 12.1716 20.79 11.4396C20.429 11.0788 20.0002 10.7931 19.5281 10.5992C19.0561 10.4052 18.5503 10.3068 18.04 10.3096C17.8411 10.3096 17.6503 10.2306 17.5096 10.0899C17.369 9.94925 17.29 9.75848 17.29 9.55957C17.29 9.36066 17.369 9.16989 17.5096 9.02924C17.6503 8.88859 17.8411 8.80957 18.04 8.80957C19.4695 8.80957 20.8405 9.37744 21.8513 10.3883C22.8621 11.3991 23.43 12.7701 23.43 14.1996C23.43 15.6291 22.8621 17.0001 21.8513 18.0109C20.8405 19.0217 19.4695 19.5896 18.04 19.5896L18.05 19.6096Z" fill="#fff"/>
<path d="M14.78 18.2397H9.21997C9.02106 18.2397 8.83029 18.1607 8.68964 18.0201C8.54899 17.8794 8.46997 17.6887 8.46997 17.4897C8.46997 17.2908 8.54899 17.1001 8.68964 16.9594C8.83029 16.8188 9.02106 16.7397 9.21997 16.7397H14.78C14.9789 16.7397 15.1696 16.8188 15.3103 16.9594C15.451 17.1001 15.53 17.2908 15.53 17.4897C15.53 17.6887 15.451 17.8794 15.3103 18.0201C15.1696 18.1607 14.9789 18.2397 14.78 18.2397Z" fill="#fff"/>
<path d="M18.05 10.3296H6C5.80109 10.3296 5.61032 10.2506 5.46967 10.1099C5.32902 9.96927 5.25 9.7785 5.25 9.57959C5.25 9.38068 5.32902 9.18991 5.46967 9.04926C5.61032 8.90861 5.80109 8.82959 6 8.82959H18.1C18.2989 8.82959 18.4897 8.90861 18.6303 9.04926C18.771 9.18991 18.85 9.38068 18.85 9.57959C18.85 9.7785 18.771 9.96927 18.6303 10.1099C18.4897 10.2506 18.2989 10.3296 18.1 10.3296H18.05Z" fill="#fff"/>
</svg>
