<svg width="24" height="24" viewBox="0 0 24 24" fill="none" xmlns="http://www.w3.org/2000/svg">
<path d="M18.5299 19.2399H5.39994C5.24277 19.2414 5.08924 19.1927 4.96158 19.101C4.83393 19.0093 4.73879 18.8793 4.68994 18.7299L1.49994 8.99994C1.45107 8.86003 1.44594 8.70855 1.48524 8.56565C1.52453 8.42275 1.6064 8.29519 1.71994 8.19994C1.83208 8.10155 1.97135 8.03935 2.11947 8.02151C2.26758 8.00366 2.41764 8.031 2.54994 8.09994L8.36994 10.9999L11.3699 5.17994C11.4391 5.06391 11.5372 4.96784 11.6547 4.90112C11.7721 4.83439 11.9049 4.79932 12.0399 4.79932C12.175 4.79932 12.3078 4.83439 12.4252 4.90112C12.5427 4.96784 12.6408 5.06391 12.7099 5.17994L15.7099 11.0099L21.5399 8.10994C21.6707 8.04184 21.8191 8.01495 21.9654 8.0328C22.1118 8.05065 22.2494 8.11241 22.3599 8.20994C22.4557 8.31485 22.5197 8.44479 22.5445 8.58465C22.5692 8.7245 22.5538 8.86852 22.4999 8.99994L19.2399 18.7199C19.1928 18.8712 19.0984 19.0034 18.9706 19.097C18.8428 19.1906 18.6884 19.2407 18.5299 19.2399ZM5.99994 17.7399H17.9999L20.5099 10.2499L15.6399 12.6699C15.5527 12.7146 15.4575 12.7414 15.3599 12.749C15.2622 12.7565 15.164 12.7446 15.071 12.7139C14.978 12.6832 14.892 12.6343 14.818 12.5701C14.744 12.5059 14.6835 12.4277 14.6399 12.3399L11.9999 7.15994L9.36994 12.3399C9.32642 12.4277 9.2659 12.5059 9.19191 12.5701C9.11792 12.6343 9.03191 12.6832 8.93889 12.7139C8.84587 12.7446 8.74768 12.7565 8.65001 12.749C8.55234 12.7414 8.45715 12.7146 8.36994 12.6699L3.47994 10.2199L5.99994 17.7399Z" fill="white"/>
<path d="M11.9999 14.7197C11.8018 14.7171 11.6126 14.6373 11.4725 14.4972C11.3324 14.3571 11.2525 14.1678 11.2499 13.9697C11.2486 13.8717 11.2668 13.7744 11.3034 13.6835C11.34 13.5925 11.3943 13.5098 11.4631 13.44C11.532 13.3702 11.614 13.3148 11.7044 13.277C11.7949 13.2392 11.8919 13.2197 11.9899 13.2197C12.1889 13.2197 12.3796 13.2987 12.5203 13.4394C12.6609 13.58 12.7399 13.7708 12.7399 13.9697C12.7399 14.1686 12.6609 14.3594 12.5203 14.5001C12.3796 14.6407 12.1889 14.7197 11.9899 14.7197H11.9999Z" fill="white"/>
</svg>
