<svg width="24" height="24" viewBox="0 0 24 24" fill="none" xmlns="http://www.w3.org/2000/svg">
<path d="M12 21.5898C4.46999 21.5898 2.77999 8.34984 2.71999 7.78984C2.70579 7.68434 2.71452 7.57702 2.74559 7.47519C2.77665 7.37337 2.82932 7.27945 2.89999 7.19984C2.97477 7.13009 3.06302 7.07637 3.15932 7.04197C3.25563 7.00758 3.35795 6.99324 3.45999 6.99984C5.58999 6.99984 6.57999 3.66984 6.58999 3.62984C6.63685 3.47489 6.73196 3.33894 6.86146 3.24181C6.99097 3.14468 7.14811 3.09144 7.30999 3.08984H16.69C16.8519 3.09144 17.009 3.14468 17.1385 3.24181C17.268 3.33894 17.3631 3.47489 17.41 3.62984C17.41 3.62984 18.41 6.99984 20.54 6.99984C20.6457 6.99971 20.7502 7.02191 20.8467 7.06499C20.9432 7.10807 21.0295 7.17107 21.1 7.24984C21.1707 7.32945 21.2233 7.42337 21.2544 7.52519C21.2855 7.62702 21.2942 7.73434 21.28 7.83984C21.22 8.34984 19.53 21.5898 12 21.5898ZM4.31999 8.34984C4.76999 10.9998 6.68999 20.0898 12 20.0898C17.31 20.0898 19.23 10.9998 19.68 8.34984C17.68 7.83984 16.56 5.63984 16.15 4.58984H7.84999C7.43999 5.63984 6.34999 7.83984 4.31999 8.34984Z" fill="white"/>
</svg>
