<svg width="24" height="24" viewBox="0 0 24 24" fill="none" xmlns="http://www.w3.org/2000/svg">
<path d="M11.55 18.4598C11.3515 18.4575 11.1617 18.3787 11.02 18.2398L5.31996 12.5298C5.19488 12.3933 5.12549 12.2149 5.12549 12.0298C5.12549 11.8447 5.19488 11.6663 5.31996 11.5298L13.71 2.99979C13.8505 2.85909 14.0411 2.77996 14.24 2.77979H19.99C20.1862 2.77979 20.3744 2.85775 20.5132 2.99653C20.652 3.1353 20.73 3.32352 20.73 3.51979L20.8 9.19979C20.8003 9.40167 20.7212 9.59559 20.58 9.73979L12.07 18.2498C11.9281 18.381 11.7431 18.4557 11.55 18.4598ZM6.89996 11.9998L11.55 16.6398L19.3 8.88979L19.25 4.26979H14.56L6.89996 11.9998Z" fill="white"/>
<path d="M14.35 21.2498C14.2512 21.252 14.1531 21.2336 14.0618 21.1957C13.9705 21.1579 13.8882 21.1013 13.82 21.0298L2.52002 9.73981C2.38754 9.59763 2.31541 9.40959 2.31884 9.21529C2.32227 9.02098 2.40098 8.8356 2.5384 8.69819C2.67581 8.56077 2.86119 8.48206 3.05549 8.47863C3.2498 8.4752 3.43784 8.54733 3.58002 8.67981L14.88 19.9998C15.0205 20.1404 15.0994 20.3311 15.0994 20.5298C15.0994 20.7286 15.0205 20.9192 14.88 21.0598C14.7353 21.1905 14.5448 21.2588 14.35 21.2498Z" fill="white"/>
<path d="M6.50004 21.1897C6.31635 21.1864 6.13954 21.1192 6.00004 20.9997L2.55004 17.5497C2.47887 17.4771 2.42279 17.3911 2.38503 17.2967C2.34727 17.2023 2.32858 17.1014 2.33004 16.9997C2.33004 16.5897 2.33004 16.5797 6.45004 12.5797C6.59066 12.4392 6.78128 12.3604 6.98004 12.3604C7.17879 12.3604 7.36941 12.4392 7.51004 12.5797C7.65049 12.7203 7.72938 12.9109 7.72938 13.1097C7.72938 13.3084 7.65049 13.4991 7.51004 13.6397C6.22004 14.9097 4.82003 16.2897 4.12004 16.9997L6.50004 19.3797L9.86003 15.9997C9.92898 15.9289 10.0114 15.8727 10.1024 15.8343C10.1934 15.7959 10.2912 15.7761 10.39 15.7761C10.4888 15.7761 10.5866 15.7959 10.6776 15.8343C10.7687 15.8727 10.8511 15.9289 10.92 15.9997C11.0605 16.1403 11.1394 16.3309 11.1394 16.5297C11.1394 16.7284 11.0605 16.9191 10.92 17.0597L7.00004 20.9997C6.86143 21.1207 6.68405 21.1881 6.50004 21.1897Z" fill="white"/>
</svg>
